<?xml version="1.0" standalone="no"?>
<!DOCTYPE svg PUBLIC "-//W3C//DTD SVG 20010904//EN"
 "http://www.w3.org/TR/2001/REC-SVG-20010904/DTD/svg10.dtd">
<svg version="1.0" xmlns="http://www.w3.org/2000/svg"
 width="122.000000pt" height="122.000000pt" viewBox="0 0 122.000000 122.000000"
 preserveAspectRatio="xMidYMid meet">
<metadata>
Created by potrace 1.14, written by Peter Selinger 2001-2017
</metadata>
<g transform="translate(0.000000,122.000000) scale(0.100000,-0.100000)"
fill="#000000" stroke="none">
<path d="M414 1184 c-34 -12 -40 -19 -38 -37 23 -143 44 -260 47 -263 1 -2 14
69 28 156 16 101 21 160 14 159 -5 0 -28 -7 -51 -15z"/>
<path d="M750 1188 c-1 -37 45 -297 50 -291 4 5 15 60 24 123 9 63 19 122 22
131 3 13 -7 21 -42 33 -57 19 -54 19 -54 4z"/>
<path d="M137 985 c-185 -254 -165 -585 48 -801 57 -58 88 -80 165 -117 52
-25 107 -47 123 -50 l27 -4 0 118 0 119 -110 0 -110 0 0 110 0 110 330 0 330
0 0 -110 0 -110 -110 0 -110 0 0 -113 c0 -63 3 -116 6 -120 9 -9 153 46 204
78 113 71 212 200 252 327 19 60 23 95 23 193 -1 106 -4 129 -29 200 -16 44
-35 87 -42 96 -8 8 -14 20 -14 25 -1 5 -18 28 -40 52 -32 36 -39 40 -44 25 -3
-10 -26 -115 -51 -233 -25 -118 -48 -223 -51 -233 -5 -16 -18 -17 -122 -15
l-117 3 -40 233 c-22 127 -42 232 -45 232 -3 0 -24 -105 -46 -232 l-39 -233
-116 -3 c-115 -3 -117 -2 -123 21 -3 13 -26 118 -51 233 -25 115 -49 218 -54
229 -7 17 -12 14 -44 -30z"/>
</g>
</svg>
