<?xml version="1.0" standalone="no"?>
<!DOCTYPE svg PUBLIC "-//W3C//DTD SVG 20010904//EN"
 "http://www.w3.org/TR/2001/REC-SVG-20010904/DTD/svg10.dtd">
<svg version="1.0" xmlns="http://www.w3.org/2000/svg"
 width="300.000000pt" height="300.000000pt" viewBox="0 0 300.000000 300.000000"
 preserveAspectRatio="xMidYMid meet">
<metadata>
Created by potrace 1.14, written by Peter Selinger 2001-2017
</metadata>
<g transform="translate(0.000000,300.000000) scale(0.100000,-0.100000)"
fill="#000000" stroke="none">
<path d="M1760 2973 c0 -17 222 -904 226 -900 2 1 40 178 85 391 65 313 78
390 67 397 -24 15 -182 70 -253 89 -117 29 -125 31 -125 23z"/>
<path d="M1102 2944 c-84 -25 -226 -77 -250 -92 -10 -7 5 -92 68 -392 44 -211
83 -386 85 -388 2 -2 7 6 10 19 3 13 50 206 105 429 55 223 102 415 105 428 7
29 -14 29 -123 -4z"/>
<path d="M2486 1959 c-82 -288 -155 -545 -163 -572 l-14 -47 -292 2 -292 3
-116 510 c-64 281 -119 503 -123 495 -3 -8 -55 -235 -116 -504 -60 -268 -113
-492 -116 -497 -3 -5 -135 -9 -294 -9 -266 0 -289 1 -294 18 -2 9 -73 258
-156 552 -84 294 -155 539 -159 543 -12 13 -128 -158 -186 -276 -184 -366
-212 -787 -78 -1172 106 -306 318 -580 583 -757 133 -88 368 -190 493 -213
l37 -7 0 301 0 301 -267 2 -268 3 0 260 0 260 838 3 837 2 0 -265 0 -265 -265
0 -265 0 0 -301 0 -301 33 7 c73 15 241 77 328 121 418 209 712 600 805 1069
26 128 26 404 0 540 -46 250 -168 518 -308 679 l-34 38 -148 -523z"/>
</g>
</svg>
